<svg xmlns="http://www.w3.org/2000/svg" viewBox="0 0 512 512" role="img" aria-label="Arcadegent">
  <rect width="512" height="512" fill="#206d5e"/>
  <circle cx="256" cy="256" r="214" fill="#d8ece7"/>
  <path fill="#f6f2e6" d="M146 158c0-25 20-45 45-45h130c25 0 45 20 45 45v192c0 25-20 45-45 45H191c-25 0-45-20-45-45V158Z"/>
  <path fill="#206d5e" d="M184 169c0-9 7-16 16-16h112c9 0 16 7 16 16v72c0 9-7 16-16 16H200c-9 0-16-7-16-16v-72Zm38 110h68c10 0 18 8 18 18v16c0 10-8 18-18 18h-68c-10 0-18-8-18-18v-16c0-10 8-18 18-18Z"/>
  <circle cx="212" cy="352" r="20" fill="#dc9b2d"/>
  <circle cx="300" cy="352" r="20" fill="#dc9b2d"/>
  <path fill="#d8ece7" d="M222 192a34 34 0 1 1 68 0v18h-28v-18a6 6 0 1 0-12 0v18h-28v-18Z"/>
</svg>
